<?xml version="1.0" standalone="no"?>
<!DOCTYPE svg PUBLIC "-//W3C//DTD SVG 20010904//EN"
 "http://www.w3.org/TR/2001/REC-SVG-20010904/DTD/svg10.dtd">
<svg version="1.0" xmlns="http://www.w3.org/2000/svg"
 width="2022.000000pt" height="2022.000000pt" viewBox="0 0 2022.000000 2022.000000"
 preserveAspectRatio="xMidYMid meet">
<metadata>
Created by potrace 1.14, written by Peter Selinger 2001-2017
</metadata>
<g transform="translate(0.000000,2022.000000) scale(0.100000,-0.100000)"
fill="#000000" stroke="none">
<path d="M5390 18235 l0 -1985 -27 -1 c-16 0 -37 -2 -48 -4 -11 -2 -45 -7 -75
-10 -63 -6 -111 -12 -172 -21 -24 -4 -54 -7 -68 -9 -48 -5 -145 -17 -171 -21
-15 -2 -47 -6 -70 -9 -24 -3 -60 -7 -79 -10 -19 -2 -59 -7 -89 -10 -30 -4 -63
-8 -73 -10 -11 -2 -47 -7 -81 -10 -34 -3 -69 -8 -77 -10 -8 -2 -46 -6 -83 -10
-37 -3 -78 -8 -90 -11 -23 -4 -74 -10 -242 -30 -27 -3 -61 -7 -75 -9 -14 -2
-45 -7 -70 -10 -25 -3 -81 -10 -125 -15 -139 -18 -149 -20 -195 -25 -120 -13
-147 -17 -170 -20 -14 -2 -52 -7 -85 -10 -33 -3 -67 -8 -75 -10 -8 -2 -43 -7
-77 -10 -34 -3 -72 -8 -84 -10 -12 -3 -43 -7 -68 -10 -25 -3 -62 -7 -81 -9
-19 -3 -60 -7 -90 -11 -30 -3 -62 -8 -70 -10 -8 -2 -44 -6 -80 -10 -36 -3 -75
-7 -85 -9 -11 -2 -49 -7 -85 -11 -36 -4 -72 -9 -81 -10 -22 -4 -115 -16 -239
-30 -36 -4 -73 -9 -82 -10 -9 -2 -45 -6 -80 -10 -35 -3 -70 -8 -78 -10 -8 -2
-44 -7 -80 -10 -36 -3 -72 -8 -80 -10 -8 -2 -42 -7 -75 -11 -33 -3 -71 -8 -85
-10 -14 -1 -52 -6 -85 -10 -33 -4 -69 -8 -80 -10 -11 -1 -26 -3 -33 -3 -12 -1
-11 -25 4 -132 2 -20 7 -54 9 -75 3 -22 10 -73 15 -114 6 -41 12 -95 14 -120
3 -25 7 -59 10 -75 2 -17 10 -73 16 -125 6 -52 13 -108 15 -125 10 -81 17
-133 21 -163 2 -18 6 -54 9 -80 3 -26 7 -58 10 -72 2 -14 7 -54 11 -90 3 -36
8 -74 10 -85 2 -11 7 -45 10 -75 3 -30 7 -66 9 -80 9 -59 26 -191 30 -236 3
-27 9 -80 15 -119 5 -38 12 -92 15 -120 7 -68 16 -135 21 -165 2 -14 6 -45 9
-70 17 -136 25 -200 30 -245 3 -27 7 -61 10 -75 2 -14 7 -50 10 -80 3 -30 8
-71 10 -90 2 -19 7 -57 10 -85 4 -27 8 -61 10 -75 4 -25 19 -140 30 -235 3
-27 8 -63 10 -80 5 -38 13 -106 20 -170 4 -27 8 -61 10 -75 2 -14 7 -47 10
-75 3 -27 8 -65 11 -84 2 -18 7 -57 9 -86 3 -28 7 -62 10 -74 2 -13 7 -49 10
-80 3 -31 8 -72 11 -92 6 -44 11 -89 19 -148 3 -23 7 -55 9 -70 3 -14 7 -53
11 -86 8 -71 13 -117 20 -165 3 -19 7 -55 10 -80 25 -199 35 -278 40 -310 2
-14 6 -50 10 -80 3 -30 7 -66 10 -80 2 -14 6 -50 9 -80 4 -30 8 -64 10 -75 2
-11 7 -51 11 -88 3 -37 8 -76 10 -85 1 -9 6 -46 10 -82 4 -36 8 -72 10 -81 2
-8 6 -40 9 -70 3 -30 8 -63 10 -74 2 -12 7 -50 11 -85 3 -36 8 -76 10 -90 1
-14 6 -50 10 -80 4 -30 9 -71 11 -90 3 -19 7 -51 9 -70 2 -19 7 -51 9 -70 3
-19 8 -57 11 -85 3 -27 8 -66 10 -85 9 -65 15 -115 20 -170 4 -30 8 -66 10
-80 3 -14 7 -47 10 -75 4 -27 8 -61 10 -75 2 -14 7 -50 10 -80 3 -30 8 -66 10
-80 3 -22 9 -66 20 -160 2 -14 6 -50 10 -80 9 -69 11 -91 20 -165 3 -33 8 -71
10 -85 3 -14 7 -47 11 -75 3 -27 7 -59 9 -70 1 -11 6 -47 9 -80 7 -58 16 -125
21 -155 2 -8 6 -44 9 -80 4 -36 8 -76 10 -90 3 -14 7 -50 11 -81 3 -31 7 -66
10 -77 2 -11 6 -47 10 -79 3 -33 8 -70 10 -84 2 -13 7 -44 9 -69 6 -57 15
-135 21 -180 3 -19 14 -109 25 -200 12 -91 23 -176 25 -190 2 -14 6 -50 10
-80 3 -30 7 -66 9 -80 2 -14 7 -52 11 -85 4 -32 8 -66 10 -75 1 -8 6 -46 9
-85 4 -38 9 -77 11 -85 2 -8 7 -42 10 -75 9 -84 14 -125 20 -165 3 -19 7 -55
10 -80 5 -46 22 -181 30 -235 4 -33 8 -61 30 -240 8 -66 17 -138 20 -160 2
-22 9 -78 15 -125 6 -47 13 -101 15 -120 2 -19 11 -91 20 -160 8 -69 17 -138
20 -155 2 -16 11 -88 20 -160 9 -71 18 -143 20 -160 8 -65 16 -125 30 -240 15
-124 17 -143 36 -285 6 -47 12 -102 14 -122 2 -21 6 -50 9 -65 3 -15 8 -55 11
-88 3 -33 17 -145 30 -250 14 -104 27 -206 29 -225 9 -72 64 -510 81 -650 6
-48 8 -68 25 -195 5 -44 12 -100 15 -125 3 -25 7 -61 10 -80 2 -19 9 -73 15
-120 11 -89 14 -115 30 -240 6 -41 13 -100 15 -130 3 -30 8 -66 10 -80 3 -14
7 -47 10 -75 11 -92 15 -130 25 -200 13 -99 18 -133 35 -280 9 -71 18 -141 20
-155 2 -14 6 -52 10 -85 3 -33 7 -67 10 -75 2 -8 6 -44 10 -80 3 -36 7 -75 9
-85 2 -11 7 -49 11 -85 3 -36 8 -72 10 -80 2 -8 7 -37 10 -65 3 -27 8 -68 10
-90 3 -22 7 -56 9 -75 8 -70 18 -146 22 -170 2 -14 7 -52 10 -85 4 -33 8 -67
10 -75 1 -8 3 -28 3 -44 l1 -29 63 7 c89 11 119 14 247 31 63 8 135 17 160 20
25 3 79 10 120 15 41 5 95 12 120 15 25 3 117 14 205 25 88 12 178 23 200 26
22 2 58 7 80 10 80 10 112 14 240 29 72 9 144 18 160 20 17 2 53 7 80 10 28 3
59 8 70 10 11 2 51 7 90 10 38 4 72 8 75 10 3 1 39 6 79 9 41 4 77 9 80 10 4
2 42 7 86 11 44 4 82 8 85 10 3 2 34 6 70 10 36 3 92 10 125 15 33 5 83 11
110 14 84 10 129 15 165 20 19 3 58 8 85 11 28 3 61 7 75 10 14 2 52 7 84 10
33 3 73 8 90 10 49 7 187 24 241 30 28 3 61 8 75 10 45 7 104 15 150 19 53 6
124 15 248 31 20 3 57 7 82 10 25 3 63 8 85 11 22 2 58 7 80 10 22 2 56 6 75
9 19 3 54 7 78 10 23 3 61 7 85 10 42 5 76 10 153 20 23 3 59 7 80 10 66 7
127 15 164 20 19 3 53 8 75 10 22 2 60 7 85 10 25 3 63 8 85 11 46 5 92 11
150 19 46 6 113 14 170 20 22 3 56 7 75 10 19 3 55 7 80 10 25 3 61 7 80 10
44 7 100 13 170 20 30 4 62 8 70 10 8 2 43 7 78 10 35 4 72 8 82 10 10 2 50 7
87 10 37 4 70 9 73 10 3 2 38 6 78 10 39 3 82 8 94 10 13 3 46 7 73 10 28 4
61 8 75 10 14 2 50 7 80 10 30 3 66 8 80 10 14 3 48 7 75 10 49 5 181 21 240
30 33 4 128 16 160 20 82 8 163 18 180 21 11 2 45 7 75 10 30 3 62 7 70 9 8 2
47 7 85 11 39 3 79 8 90 10 11 2 44 7 74 10 30 3 64 8 75 10 12 2 50 6 86 9
36 4 72 8 80 10 13 3 79 12 150 20 71 8 138 16 161 20 14 3 52 7 85 10 32 3
70 7 84 10 24 4 44 7 160 20 30 4 66 8 80 10 25 4 59 8 160 21 30 3 63 8 72 9
9 2 48 7 85 10 37 4 76 9 87 11 10 2 44 6 75 9 31 4 67 8 81 10 14 2 66 9 115
15 50 6 104 13 120 15 17 2 53 7 80 10 28 3 64 8 80 10 17 3 125 16 240 30
116 14 224 27 240 30 17 2 56 7 88 10 32 4 66 8 75 10 19 3 138 18 162 20 8 1
40 5 70 9 30 4 73 9 95 12 22 2 51 7 65 9 14 2 54 7 90 11 36 3 72 7 80 9 8 2
44 6 80 10 36 4 72 8 80 10 9 2 43 6 75 10 33 4 71 9 85 11 14 2 50 6 80 9 30
3 66 8 80 10 14 3 48 7 75 10 28 3 64 8 81 10 17 2 57 7 89 11 32 3 68 8 79
10 12 2 46 7 76 10 30 3 114 13 185 22 147 19 135 7 121 122 -13 107 -16 135
-21 166 -2 17 -7 57 -11 89 -3 32 -7 66 -9 74 -2 9 -6 45 -10 81 -3 36 -8 72
-10 80 -2 8 -7 44 -10 80 -4 36 -9 68 -11 72 -7 10 -197 9 1926 10 1037 0
1887 4 1890 8 3 5 5 4048 4 8987 l0 8978 -6742 3 -6742 2 0 -1985z"/>
</g>
</svg>
