<svg width="734" height="330" viewBox="0 0 734 330" fill="none" xmlns="http://www.w3.org/2000/svg">
<rect y="72.9985" width="194.875" height="258.995" transform="rotate(-7.11398 0 72.9985)" fill="#C8E0F8"/>
<rect x="16.9814" y="94.2754" width="156.935" height="163.944" transform="rotate(-7.11398 16.9814 94.2754)" fill="white"/>
<rect x="68.1416" y="2" width="216.12" height="289.493" fill="url(#paint0_linear_669_4752)" stroke="white" stroke-width="4"/>
<rect x="86.4805" y="33.4048" width="180.289" height="185.781" fill="white"/>
<line x1="133.702" y1="116.998" x2="151.591" y2="100.915" stroke="#A5CCF3" stroke-width="10" stroke-linecap="round"/>
<path d="M150.296 144.061C166.546 171.048 188.547 169.176 204.772 145.855" stroke="#A5CCF3" stroke-width="10" stroke-linecap="round"/>
<line x1="167.382" y1="119.575" x2="153.553" y2="102.836" stroke="#A5CCF3" stroke-width="10" stroke-linecap="round"/>
<circle cx="207.019" cy="112.699" r="15.0212" transform="rotate(-18.5421 207.019 112.699)" stroke="#A5CCF3" stroke-width="10"/>
<path d="M395.628 125.31H406.408V80.87H422.688C423.128 78.56 422.138 72.95 420.158 71.52C416.308 74.93 411.138 76.69 406.408 77.46V41.82H395.628V125.31ZM334.908 108.81C341.178 106.39 355.038 97.37 362.298 84.61C364.608 88.13 367.688 91.21 370.108 93.52C377.038 100.23 384.078 104.74 388.918 106.28L389.688 103.86C385.618 101.99 380.118 97.26 375.058 89.34C371.318 83.29 368.238 78.12 366.808 70.75C366.808 69.98 366.918 69.21 366.918 68.44V47.1H355.918V69.76C355.368 86.7 343.708 101.33 333.918 106.28L334.908 108.81ZM489.822 101.88H500.602V39.51H489.822V101.88ZM430.092 47.32H449.782V58.54C448.132 74.82 436.252 87.36 428.332 91.87L429.762 94.4C435.922 91.98 449.452 80.76 455.612 71.41C458.252 74.82 462.982 79.44 466.062 82.19C469.802 85.71 476.842 90.99 480.252 92.31L481.352 89.89C478.382 88.35 473.652 84.06 469.692 78.56C467.052 74.93 461.662 66.68 460.122 60.3C460.232 59.42 460.342 58.54 460.342 57.66V47.32H479.152V43.25H430.092V47.32ZM445.162 131.25H504.782L503.462 127.18H455.832V101.22H445.162V131.25ZM555.225 43.25C536.415 43.25 525.525 53.26 525.525 67.56V68.99C525.525 82.96 536.085 93.52 555.225 93.52C574.365 93.52 585.035 82.96 585.035 68.99V67.56C585.035 53.26 574.365 43.25 555.225 43.25ZM555.225 90.33C543.675 90.33 536.305 81.09 536.305 69.1V67.45C536.305 55.13 543.675 46.44 555.225 46.44C566.775 46.44 574.255 55.13 574.255 67.45V69.1C574.255 81.09 566.775 90.33 555.225 90.33ZM514.305 116.84H596.915L595.155 112.44L592.185 112.88H514.305V116.84ZM613.834 94.62H637.814V112.88H602.284V116.84H684.894L683.134 112.44L680.164 112.88H648.594V94.51C659.704 93.85 672.904 90 678.844 84.94L678.074 83.62C671.584 87.69 657.724 90.22 644.854 90.22H624.504V71.19H670.484V45.67H613.284V49.63H659.814V67.45H613.834V94.62ZM385.217 186.8H397.867V205.17H385.217V209.68H397.867V237.18H408.647V171.51H397.867V182.29H385.217V186.8ZM358.597 172.5C343.087 172.5 333.737 182.73 333.737 196.37V196.81C333.737 210.45 342.757 220.79 358.597 220.79C374.437 220.79 383.457 210.45 383.457 196.81V196.37C383.457 182.73 374.437 172.5 358.597 172.5ZM358.597 217.6C348.917 217.6 344.737 207.92 344.737 196.92V196.26C344.737 185.26 348.917 175.69 358.597 175.69C368.277 175.69 372.457 185.26 372.457 196.26V196.92C372.457 207.92 368.277 217.6 358.597 217.6ZM351.557 263.36H411.507L410.187 259.29H362.227V234.1H351.557V263.36ZM472.371 187.57H487.001V199.01H470.061V203.52H487.001V215.95H497.781V171.51H487.001V183.06H472.371V187.57ZM426.721 178.99H457.741V180.09C455.211 195.16 441.681 210.01 424.521 217.16L425.401 219.69C441.901 214.08 466.321 197.03 469.401 180.42V174.92H426.721V178.99ZM441.571 263.36H502.071L500.751 259.29H452.241V244.77H497.561V223.21H441.571V227.06H486.891V240.81H441.571V263.36ZM509.586 191.86H567.006V187.79H544.346V172.72H533.566V187.79H509.586V191.86ZM572.946 257.31H583.726V214.85H600.006C600.446 212.54 599.456 206.93 597.476 205.5C593.626 208.91 588.456 210.67 583.726 211.44V173.82H572.946V257.31ZM538.846 198.9C523.666 198.9 514.976 208.03 514.976 220.68V221.23C514.976 233.88 523.666 243.23 538.846 243.23C554.026 243.23 562.716 233.88 562.716 221.23V220.68C562.716 208.03 554.026 198.9 538.846 198.9ZM538.846 240.04C532.136 240.04 525.756 234.65 525.756 221.34V220.57C525.756 206.93 532.136 202.09 538.846 202.09C545.556 202.09 551.936 207.26 551.936 220.57V221.34C551.936 234.65 545.556 240.04 538.846 240.04ZM663.484 257.31H674.264V212.87H690.544C690.984 210.56 689.994 204.95 688.014 203.52C684.164 206.93 678.994 208.69 674.264 209.46V173.82H663.484V257.31ZM619.374 239.38C630.814 239.49 647.314 234.1 655.894 226.84L654.904 225.19C644.454 231.35 629.274 234.21 621.574 234.21H617.504V184.82H646.764V180.75H606.834V239.38H619.374Z" fill="#A4CCF3"/>
<defs>
<linearGradient id="paint0_linear_669_4752" x1="353.28" y1="113.245" x2="65.3647" y2="287.385" gradientUnits="userSpaceOnUse">
<stop stop-color="#C8E0F8"/>
<stop offset="0.494792" stop-color="#C8E0F8"/>
<stop offset="0.494892" stop-color="#A5CCF3"/>
<stop offset="1" stop-color="#A5CCF3"/>
</linearGradient>
</defs>
</svg>
