<svg width="4441" height="2052" viewBox="0 0 4441 2052" fill="none" xmlns="http://www.w3.org/2000/svg">
<rect y="477.138" width="1193.66" height="1586.41" transform="rotate(-7.11398 0 477.138)" fill="#C8E0F8"/>
<rect x="104.016" y="607.465" width="961.268" height="1004.2" transform="rotate(-7.11398 104.016 607.465)" fill="white"/>
<rect x="405.141" y="30" width="1348.29" height="1797.72" fill="url(#paint0_linear_668_4736)" stroke="#F9F9F9" stroke-width="60"/>
<rect x="529.722" y="234.614" width="1104.32" height="1137.96" fill="white"/>
<line x1="818.92" y1="747.527" x2="929.425" y2="648.175" stroke="#A5CCF3" stroke-width="60" stroke-linecap="round"/>
<path d="M920.608 912.407C1020.15 1077.71 1154.91 1066.24 1254.29 923.4" stroke="#A5CCF3" stroke-width="60" stroke-linecap="round"/>
<line x1="1029.08" y1="763.223" x2="931.69" y2="649.297" stroke="#A5CCF3" stroke-width="60" stroke-linecap="round"/>
<circle cx="1268.04" cy="720.307" r="92.6348" transform="rotate(-18.5421 1268.04 720.307)" stroke="#A5CCF3" stroke-width="60"/>
<path d="M2351.31 841.7H2419.91V558.9H2523.51C2526.31 544.2 2520.01 508.5 2507.41 499.4C2482.91 521.1 2450.01 532.3 2419.91 537.2V310.4H2351.31V841.7ZM1964.91 736.7C2004.81 721.3 2093.01 663.9 2139.21 582.7C2153.91 605.1 2173.51 624.7 2188.91 639.4C2233.01 682.1 2277.81 710.8 2308.61 720.6L2313.51 705.2C2287.61 693.3 2252.61 663.2 2220.41 612.8C2196.61 574.3 2177.01 541.4 2167.91 494.5C2167.91 489.6 2168.61 484.7 2168.61 479.8V344H2098.61V488.2C2095.11 596 2020.91 689.1 1958.61 720.6L1964.91 736.7ZM2950.73 692.6H3019.33V295.7H2950.73V692.6ZM2570.63 345.4H2695.93V416.8C2685.43 520.4 2609.83 600.2 2559.43 628.9L2568.53 645C2607.73 629.6 2693.83 558.2 2733.03 498.7C2749.83 520.4 2779.93 549.8 2799.53 567.3C2823.33 589.7 2868.13 623.3 2889.83 631.7L2896.83 616.3C2877.93 606.5 2847.83 579.2 2822.63 544.2C2805.83 521.1 2771.53 468.6 2761.73 428C2762.43 422.4 2763.13 416.8 2763.13 411.2V345.4H2882.83V319.5H2570.63V345.4ZM2666.53 879.5H3045.93L3037.53 853.6H2734.43V688.4H2666.53V879.5ZM3366.93 319.5C3247.23 319.5 3177.93 383.2 3177.93 474.2V483.3C3177.93 572.2 3245.13 639.4 3366.93 639.4C3488.73 639.4 3556.63 572.2 3556.63 483.3V474.2C3556.63 383.2 3488.73 319.5 3366.93 319.5ZM3366.93 619.1C3293.43 619.1 3246.53 560.3 3246.53 484V473.5C3246.53 395.1 3293.43 339.8 3366.93 339.8C3440.43 339.8 3488.03 395.1 3488.03 473.5V484C3488.03 560.3 3440.43 619.1 3366.93 619.1ZM3106.53 787.8H3632.23L3621.03 759.8L3602.13 762.6H3106.53V787.8ZM3739.89 646.4H3892.49V762.6H3666.39V787.8H4192.09L4180.89 759.8L4161.99 762.6H3961.09V645.7C4031.79 641.5 4115.79 617 4153.59 584.8L4148.69 576.4C4107.39 602.3 4019.19 618.4 3937.29 618.4H3807.79V497.3H4100.39V334.9H3736.39V360.1H4032.49V473.5H3739.89V646.4ZM2285.06 1233H2365.56V1349.9H2285.06V1378.6H2365.56V1553.6H2434.16V1135.7H2365.56V1204.3H2285.06V1233ZM2115.66 1142C2016.96 1142 1957.46 1207.1 1957.46 1293.9V1296.7C1957.46 1383.5 2014.86 1449.3 2115.66 1449.3C2216.46 1449.3 2273.86 1383.5 2273.86 1296.7V1293.9C2273.86 1207.1 2216.46 1142 2115.66 1142ZM2115.66 1429C2054.06 1429 2027.46 1367.4 2027.46 1297.4V1293.2C2027.46 1223.2 2054.06 1162.3 2115.66 1162.3C2177.26 1162.3 2203.86 1223.2 2203.86 1293.2V1297.4C2203.86 1367.4 2177.26 1429 2115.66 1429ZM2070.86 1720.2H2452.36L2443.96 1694.3H2138.76V1534H2070.86V1720.2ZM2839.68 1237.9H2932.78V1310.7H2824.98V1339.4H2932.78V1418.5H3001.38V1135.7H2932.78V1209.2H2839.68V1237.9ZM2549.18 1183.3H2746.58V1190.3C2730.48 1286.2 2644.38 1380.7 2535.18 1426.2L2540.78 1442.3C2645.78 1406.6 2801.18 1298.1 2820.78 1192.4V1157.4H2549.18V1183.3ZM2643.68 1720.2H3028.68L3020.28 1694.3H2711.58V1601.9H2999.98V1464.7H2643.68V1489.2H2932.08V1576.7H2643.68V1720.2ZM3076.5 1265.2H3441.9V1239.3H3297.7V1143.4H3229.1V1239.3H3076.5V1265.2ZM3479.7 1681.7H3548.3V1411.5H3651.9C3654.7 1396.8 3648.4 1361.1 3635.8 1352C3611.3 1373.7 3578.4 1384.9 3548.3 1389.8V1150.4H3479.7V1681.7ZM3262.7 1310C3166.1 1310 3110.8 1368.1 3110.8 1448.6V1452.1C3110.8 1532.6 3166.1 1592.1 3262.7 1592.1C3359.3 1592.1 3414.6 1532.6 3414.6 1452.1V1448.6C3414.6 1368.1 3359.3 1310 3262.7 1310ZM3262.7 1571.8C3220 1571.8 3179.4 1537.5 3179.4 1452.8V1447.9C3179.4 1361.1 3220 1330.3 3262.7 1330.3C3305.4 1330.3 3346 1363.2 3346 1447.9V1452.8C3346 1537.5 3305.4 1571.8 3262.7 1571.8ZM4055.85 1681.7H4124.45V1398.9H4228.05C4230.85 1384.2 4224.55 1348.5 4211.95 1339.4C4187.45 1361.1 4154.55 1372.3 4124.45 1377.2V1150.4H4055.85V1681.7ZM3775.15 1567.6C3847.95 1568.3 3952.95 1534 4007.55 1487.8L4001.25 1477.3C3934.75 1516.5 3838.15 1534.7 3789.15 1534.7H3763.25V1220.4H3949.45V1194.5H3695.35V1567.6H3775.15Z" fill="#A4CCF3"/>
<defs>
<linearGradient id="paint0_linear_668_4736" x1="2163.94" y1="723.655" x2="400.382" y2="1790.31" gradientUnits="userSpaceOnUse">
<stop stop-color="#C8E0F8"/>
<stop offset="0.494792" stop-color="#C8E0F8"/>
<stop offset="0.494892" stop-color="#A5CCF3"/>
<stop offset="1" stop-color="#A5CCF3"/>
</linearGradient>
</defs>
</svg>
