<svg width="250" height="250" viewBox="0 0 250 250" fill="none" xmlns="http://www.w3.org/2000/svg">
<mask id="mask0_898_5562" style="mask-type:alpha" maskUnits="userSpaceOnUse" x="0" y="0" width="250" height="250">
<path d="M250 125C250 55.9644 194.036 0 125 0C55.9644 0 0 55.9644 0 125C0 194.036 55.9644 250 125 250C194.036 250 250 194.036 250 125Z" fill="white"/>
</mask>
<g mask="url(#mask0_898_5562)">
<path d="M250 0H0V250H250V0Z" fill="#F7EFD8"/>
<path d="M62.6738 190.353L221.183 241.856C243.069 248.967 266.575 236.99 273.686 215.104L325.189 56.5947C332.3 34.7091 320.323 11.2027 298.437 4.09162L139.928 -47.4112C118.042 -54.5223 94.536 -42.5452 87.425 -20.6596L35.9221 137.85C28.8111 159.735 40.7882 183.242 62.6738 190.353Z" fill="#556270"/>
<path d="M133.113 127.832C147.833 132.776 161.587 130.843 174.374 122.033" stroke="white" stroke-width="2.22222" stroke-linecap="round"/>
<path d="M112.055 102.741C111.521 98.9426 108.78 96.1883 105.931 96.5886C103.083 96.9889 101.206 100.392 101.74 104.19C102.274 107.988 105.016 110.743 107.864 110.342C110.713 109.942 112.589 106.539 112.055 102.741Z" fill="white"/>
<path d="M194.577 91.143C194.043 87.345 191.301 84.5906 188.453 84.991C185.604 85.3913 183.728 88.7947 184.261 92.5927C184.795 96.3907 187.537 99.145 190.386 98.7447C193.234 98.3444 195.11 94.9409 194.577 91.143Z" fill="white"/>
</g>
</svg>
