<svg width="250" height="250" viewBox="0 0 250 250" fill="none" xmlns="http://www.w3.org/2000/svg">
<mask id="mask0_897_5894" style="mask-type:alpha" maskUnits="userSpaceOnUse" x="0" y="0" width="250" height="250">
<path d="M250 125C250 55.9644 194.036 0 125 0C55.9644 0 0 55.9644 0 125C0 194.036 55.9644 250 125 250C194.036 250 250 194.036 250 125Z" fill="white"/>
</mask>
<g mask="url(#mask0_897_5894)">
<path d="M250 0H0V250H250V0Z" fill="#FEBEA3"/>
<path d="M44.0731 134.978L173.597 239.865C191.481 254.347 217.718 251.589 232.2 233.705L337.087 104.181C351.569 86.2974 348.811 60.0601 330.928 45.5782L201.403 -59.3085C183.52 -73.7903 157.282 -71.0326 142.8 -53.1491L37.9137 76.3753C23.4319 94.2588 26.1895 120.496 44.0731 134.978Z" fill="#F6F5DA"/>
<path d="M134.588 100.822C147.219 109.854 160.937 112.027 175.742 107.34" stroke="black" stroke-width="2.22222" stroke-linecap="round"/>
<path d="M114.927 69.5842C115.527 65.7961 113.71 62.3604 110.869 61.9105C108.028 61.4605 105.238 64.1666 104.638 67.9547C104.038 71.7427 105.855 75.1784 108.696 75.6284C111.537 76.0783 114.327 73.3723 114.927 69.5842Z" fill="black"/>
<path d="M210.952 84.7932C211.552 81.0051 209.735 77.5694 206.894 77.1195C204.053 76.6695 201.264 79.3755 200.664 83.1636C200.064 86.9517 201.88 90.3874 204.722 90.8373C207.563 91.2873 210.352 88.5813 210.952 84.7932Z" fill="black"/>
</g>
</svg>
