<svg width="252" height="252" viewBox="0 0 252 252" fill="none" xmlns="http://www.w3.org/2000/svg">
<mask id="mask0_902_5316" style="mask-type:alpha" maskUnits="userSpaceOnUse" x="0" y="0" width="252" height="252">
<path d="M252 126C252 56.4121 195.588 0 126 0C56.4121 0 0 56.4121 0 126C0 195.588 56.4121 252 126 252C195.588 252 252 195.588 252 126Z" fill="white"/>
</mask>
<g mask="url(#mask0_902_5316)">
<path d="M252 0H0V252H252V0Z" fill="#6D8B89"/>
<path d="M250.71 236.32C283.06 166.945 253.046 84.4806 183.671 52.1306C114.296 19.7805 31.8318 49.7951 -0.51825 119.17C-32.8683 188.545 -2.85373 271.009 66.5211 303.359C135.896 335.709 218.36 305.695 250.71 236.32Z" fill="#F8F4C4"/>
<path d="M82.9141 171.896C82.3073 178.832 85.3988 185.805 91.5086 191.281C97.6183 196.757 106.246 200.288 115.493 201.097C124.74 201.906 133.85 199.927 140.818 195.595C147.786 191.263 152.041 184.933 152.648 177.997" fill="black"/>
<path d="M103.397 138.555C103.734 134.704 101.665 131.377 98.7769 131.125C95.8884 130.872 93.2737 133.789 92.9368 137.64C92.5998 141.492 94.6683 144.819 97.5567 145.071C100.445 145.324 103.06 142.407 103.397 138.555Z" fill="black"/>
<path d="M145.239 142.216C145.576 138.364 143.507 135.037 140.619 134.785C137.73 134.532 135.116 137.449 134.779 141.301C134.442 145.152 136.51 148.479 139.399 148.731C142.287 148.984 144.902 146.067 145.239 142.216Z" fill="black"/>
</g>
</svg>
