<svg width="250" height="250" viewBox="0 0 250 250" fill="none" xmlns="http://www.w3.org/2000/svg">
<mask id="mask0_926_4856" style="mask-type:alpha" maskUnits="userSpaceOnUse" x="0" y="0" width="250" height="250">
<path d="M250 125C250 55.9644 194.036 0 125 0C55.9644 0 0 55.9644 0 125C0 194.036 55.9644 250 125 250C194.036 250 250 194.036 250 125Z" fill="white"/>
</mask>
<g mask="url(#mask0_926_4856)">
<path d="M250 0H0V250H250V0Z" fill="#F5938B"/>
<path d="M348.667 156.547L228.304 -3.18053C211.685 -25.2342 180.335 -29.6402 158.281 -13.0216L-1.44597 107.341C-23.4997 123.96 -27.9057 155.31 -11.287 177.364L109.076 337.091C125.695 359.145 157.045 363.551 179.099 346.932L338.826 226.569C360.879 209.95 365.285 178.6 348.667 156.547Z" fill="#F1E7C5"/>
<path d="M127.41 116.936C140.917 124.597 154.786 125.324 169.02 119.116" stroke="black" stroke-width="2.22222" stroke-linecap="round"/>
<path d="M112.254 74.4176C112.455 70.5875 110.289 67.3606 107.416 67.2101C104.543 67.0595 102.052 70.0424 101.851 73.8724C101.651 77.7025 103.817 80.9294 106.689 81.0799C109.562 81.2305 112.053 78.2477 112.254 74.4176Z" fill="black"/>
<path d="M195.473 78.7789C195.673 74.9489 193.507 71.722 190.635 71.5714C187.762 71.4209 185.271 74.4037 185.07 78.2338C184.869 82.0638 187.035 85.2907 189.908 85.4413C192.78 85.5918 195.272 82.609 195.473 78.7789Z" fill="black"/>
</g>
</svg>
