<svg width="252" height="253" viewBox="0 0 252 253" fill="none" xmlns="http://www.w3.org/2000/svg">
<mask id="mask0_902_5276" style="mask-type:alpha" maskUnits="userSpaceOnUse" x="0" y="0" width="252" height="253">
<path d="M252 126.5C252 56.636 195.588 0 126 0C56.4121 0 0 56.636 0 126.5C0 196.364 56.4121 253 126 253C195.588 253 252 196.364 252 126.5Z" fill="white"/>
</mask>
<g mask="url(#mask0_902_5276)">
<path d="M252 0H0V253H252V0Z" fill="#91BE95"/>
<path d="M90.9999 264.163C151.265 299.095 228.325 278.365 263.119 217.861C297.913 157.357 277.265 79.9906 217 45.0586C156.735 10.1266 79.6747 30.8568 44.8807 91.3608C10.0868 151.865 30.7351 229.231 90.9999 264.163Z" fill="#FF8482"/>
<path d="M105 91.3604C119 98.3881 133 98.3881 147 91.3604" stroke="black" stroke-width="2.22222" stroke-linecap="round"/>
<path d="M108.5 63.2495C108.5 59.3681 106.149 56.2217 103.25 56.2217C100.351 56.2217 98 59.3681 98 63.2495C98 67.1308 100.351 70.2772 103.25 70.2772C106.149 70.2772 108.5 67.1308 108.5 63.2495Z" fill="black"/>
<path d="M150.5 63.2495C150.5 59.3681 148.149 56.2217 145.25 56.2217C142.351 56.2217 140 59.3681 140 63.2495C140 67.1308 142.351 70.2772 145.25 70.2772C148.149 70.2772 150.5 67.1308 150.5 63.2495Z" fill="black"/>
</g>
</svg>
