<svg width="250" height="250" viewBox="0 0 250 250" fill="none" xmlns="http://www.w3.org/2000/svg">
<mask id="mask0_898_5502" style="mask-type:alpha" maskUnits="userSpaceOnUse" x="0" y="0" width="250" height="250">
<path d="M250 125C250 55.9644 194.036 0 125 0C55.9644 0 0 55.9644 0 125C0 194.036 55.9644 250 125 250C194.036 250 250 194.036 250 125Z" fill="white"/>
</mask>
<g mask="url(#mask0_898_5502)">
<path d="M250 0H0V250H250V0Z" fill="#C7B6BE"/>
<path d="M248.72 234.444C280.814 165.62 251.037 83.8097 182.213 51.7165C113.389 19.6232 31.579 49.3995 -0.514309 118.224C-32.6076 187.048 -2.83125 268.858 65.993 300.951C134.817 333.044 216.627 303.268 248.72 234.444Z" fill="#F9DED3"/>
<path d="M82.2559 170.532C81.6539 177.413 84.7209 184.33 90.7822 189.763C96.8434 195.195 105.402 198.698 114.576 199.501C123.75 200.304 132.787 198.34 139.7 194.043C146.612 189.745 150.834 183.465 151.436 176.585" fill="black"/>
<path d="M102.576 137.455C102.911 133.635 100.859 130.334 97.9932 130.083C95.1277 129.833 92.5337 132.727 92.1994 136.547C91.8652 140.368 93.9172 143.669 96.7827 143.919C99.6482 144.17 102.242 141.276 102.576 137.455Z" fill="black"/>
<path d="M144.084 141.087C144.419 137.266 142.367 133.965 139.501 133.715C136.635 133.464 134.042 136.358 133.707 140.179C133.373 143.999 135.425 147.3 138.291 147.551C141.156 147.801 143.75 144.907 144.084 141.087Z" fill="black"/>
</g>
</svg>
