<svg width="250" height="250" viewBox="0 0 250 250" fill="none" xmlns="http://www.w3.org/2000/svg">
<mask id="mask0_897_5824" style="mask-type:alpha" maskUnits="userSpaceOnUse" x="0" y="0" width="250" height="250">
<path d="M250 125C250 55.9644 194.036 0 125 0C55.9644 0 0 55.9644 0 125C0 194.036 55.9644 250 125 250C194.036 250 250 194.036 250 125Z" fill="white"/>
</mask>
<g mask="url(#mask0_897_5824)">
<path d="M250 0H0V250H250V0Z" fill="#97C4AD"/>
<path d="M191.113 24.4025L42.6116 100.068C22.1079 110.515 13.9554 135.605 24.4026 156.109L100.068 304.61C110.515 325.114 135.605 333.266 156.109 322.819L304.61 247.154C325.114 236.707 333.266 211.616 322.819 191.113L247.154 42.6115C236.707 22.1078 211.616 13.9554 191.113 24.4025Z" fill="#E6FCD9"/>
<path d="M114.994 158.058C115.356 164.955 119.355 171.378 126.114 175.914C132.872 180.451 141.835 182.728 151.032 182.246C160.228 181.764 168.904 178.562 175.151 173.344C181.398 168.127 184.705 161.32 184.343 154.423" fill="black"/>
<path d="M110.072 130.5C109.872 126.67 107.38 123.687 104.508 123.837C101.635 123.988 99.4694 127.215 99.6701 131.045C99.8708 134.875 102.362 137.858 105.235 137.707C108.107 137.557 110.273 134.33 110.072 130.5Z" fill="black"/>
<path d="M193.291 126.138C193.091 122.308 190.599 119.325 187.727 119.476C184.854 119.626 182.688 122.853 182.889 126.683C183.09 130.514 185.581 133.496 188.453 133.346C191.326 133.195 193.492 129.968 193.291 126.138Z" fill="black"/>
</g>
</svg>
