<svg width="250" height="250" viewBox="0 0 250 250" fill="none" xmlns="http://www.w3.org/2000/svg">
<mask id="mask0_898_5512" style="mask-type:alpha" maskUnits="userSpaceOnUse" x="0" y="0" width="250" height="250">
<path d="M250 125C250 55.9644 194.036 0 125 0C55.9644 0 0 55.9644 0 125C0 194.036 55.9644 250 125 250C194.036 250 250 194.036 250 125Z" fill="white"/>
</mask>
<g mask="url(#mask0_898_5512)">
<path d="M250 0H0V250H250V0Z" fill="#C7B6BE"/>
<path d="M333.813 87.3585L169.983 -27.3568C147.363 -43.1957 116.185 -37.6983 100.347 -15.078L-14.3687 148.752C-30.2076 171.373 -24.7102 202.55 -2.08996 218.389L161.74 333.104C184.361 348.943 215.538 343.446 231.377 320.825L346.092 156.995C361.931 134.375 356.434 103.197 333.813 87.3585Z" fill="#F9DED3"/>
<path d="M123.266 130.049C136.496 138.178 150.332 139.388 164.774 133.681" stroke="black" stroke-width="2.22222" stroke-linecap="round"/>
<path d="M130.356 88.844C130.69 85.0232 128.638 81.7227 125.772 81.472C122.907 81.2213 120.313 84.1154 119.979 87.9361C119.644 91.7568 121.696 95.0573 124.562 95.308C127.428 95.5588 130.021 92.6647 130.356 88.844Z" fill="black"/>
<path d="M171.864 92.4753C172.198 88.6546 170.146 85.3541 167.28 85.1033C164.415 84.8526 161.821 87.7467 161.487 91.5674C161.152 95.3881 163.204 98.6887 166.07 98.9394C168.935 99.1901 171.529 96.296 171.864 92.4753Z" fill="black"/>
</g>
</svg>
