<svg width="250" height="250" viewBox="0 0 250 250" fill="none" xmlns="http://www.w3.org/2000/svg">
<mask id="mask0_897_5784" style="mask-type:alpha" maskUnits="userSpaceOnUse" x="0" y="0" width="250" height="250">
<path d="M250 125C250 55.9644 194.036 0 125 0C55.9644 0 0 55.9644 0 125C0 194.036 55.9644 250 125 250C194.036 250 250 194.036 250 125Z" fill="white"/>
</mask>
<g mask="url(#mask0_897_5784)">
<path d="M250 0H0V250H250V0Z" fill="#8C8888"/>
<path d="M24.2974 225.936L176.288 328.454C197.273 342.609 225.76 337.072 239.915 316.086L342.434 164.096C356.588 143.111 351.051 114.624 330.066 100.469L178.075 -2.04975C157.09 -16.2046 128.603 -10.6673 114.448 10.3181L11.9295 162.308C-2.2254 183.294 3.31189 211.781 24.2974 225.936Z" fill="#C8E0F8"/>
<path d="M119.109 169.055C119.591 175.945 123.703 182.297 130.539 186.715C137.376 191.132 146.377 193.253 155.564 192.611C164.75 191.968 173.369 188.615 179.524 183.289C185.679 177.963 188.866 171.1 188.385 164.21" fill="black"/>
<path d="M106.296 135.144C106.028 131.318 103.485 128.379 100.616 128.58C97.7461 128.78 95.6368 132.044 95.9043 135.87C96.1719 139.696 98.7149 142.635 101.584 142.435C104.454 142.234 106.563 138.97 106.296 135.144Z" fill="black"/>
<path d="M203.282 128.362C203.014 124.536 200.471 121.597 197.602 121.798C194.732 121.998 192.623 125.263 192.891 129.089C193.158 132.915 195.701 135.854 198.571 135.653C201.44 135.452 203.55 132.188 203.282 128.362Z" fill="black"/>
</g>
</svg>
