<svg width="252" height="252" viewBox="0 0 252 252" fill="none" xmlns="http://www.w3.org/2000/svg">
<mask id="mask0_902_5376" style="mask-type:alpha" maskUnits="userSpaceOnUse" x="0" y="0" width="252" height="252">
<path d="M252 126C252 56.4121 195.588 0 126 0C56.4121 0 0 56.4121 0 126C0 195.588 56.4121 252 126 252C195.588 252 252 195.588 252 126Z" fill="white"/>
</mask>
<g mask="url(#mask0_902_5376)">
<path d="M252 0H0V252H252V0Z" fill="#FFE4B8"/>
<path d="M285.53 267.122C318.158 190.254 282.296 101.491 205.428 68.8627C128.561 36.2345 39.7977 72.0973 7.16949 148.965C-25.4587 225.832 10.4041 314.595 87.2713 347.223C164.138 379.852 252.902 343.989 285.53 267.122Z" fill="#B8AA95"/>
<path d="M42.707 169.64C41.8767 175.702 44.6703 181.885 50.4732 186.83C56.2761 191.774 64.6131 195.076 73.6499 196.007C82.6868 196.938 91.6834 195.423 98.6606 191.795C105.638 188.166 110.024 182.723 110.854 176.661" fill="black"/>
<path d="M39.2381 127.804C39.6696 124.103 37.8577 120.85 35.1913 120.539C32.5249 120.227 30.0135 122.973 29.5821 126.674C29.1507 130.374 30.9625 133.627 33.629 133.939C36.2954 134.251 38.8067 131.504 39.2381 127.804Z" fill="black"/>
<path d="M123.123 132.2C123.554 128.5 121.742 125.247 119.076 124.935C116.41 124.623 113.898 127.37 113.467 131.07C113.035 134.771 114.847 138.024 117.514 138.336C120.18 138.648 122.691 135.901 123.123 132.2Z" fill="black"/>
</g>
</svg>
