<svg width="250" height="250" viewBox="0 0 250 250" fill="none" xmlns="http://www.w3.org/2000/svg">
<mask id="mask0_926_4876" style="mask-type:alpha" maskUnits="userSpaceOnUse" x="0" y="0" width="250" height="250">
<path d="M250 125C250 55.9644 194.036 0 125 0C55.9644 0 0 55.9644 0 125C0 194.036 55.9644 250 125 250C194.036 250 250 194.036 250 125Z" fill="white"/>
</mask>
<g mask="url(#mask0_926_4876)">
<path d="M250 0H0V250H250V0Z" fill="#F5938B"/>
<path d="M54.846 -74.3999C-21.9644 -43.3665 -59.074 44.0583 -28.0406 120.869C2.99283 197.679 90.4175 234.789 167.228 203.755C244.038 172.722 281.148 85.2972 250.115 8.48671C219.081 -68.3237 131.656 -105.433 54.846 -74.3999Z" fill="#F1E7C5"/>
<path d="M107.27 134.642C121.99 139.586 135.743 137.653 148.531 128.843" stroke="black" stroke-width="2.22222" stroke-linecap="round"/>
<path d="M84.2779 95.7963C83.7441 91.9983 81.0022 89.244 78.1537 89.6443C75.3053 90.0446 73.4288 93.448 73.9626 97.246C74.4963 101.044 77.2382 103.798 80.0867 103.398C82.9352 102.998 84.8116 99.5943 84.2779 95.7963Z" fill="black"/>
<path d="M166.799 84.1986C166.266 80.4006 163.524 77.6463 160.675 78.0466C157.827 78.447 155.95 81.8504 156.484 85.6483C157.018 89.4463 159.76 92.2007 162.608 91.8003C165.457 91.4 167.333 87.9966 166.799 84.1986Z" fill="black"/>
</g>
</svg>
