<svg width="250" height="250" viewBox="0 0 250 250" fill="none" xmlns="http://www.w3.org/2000/svg">
<mask id="mask0_898_5492" style="mask-type:alpha" maskUnits="userSpaceOnUse" x="0" y="0" width="250" height="250">
<path d="M250 125C250 55.9644 194.036 0 125 0C55.9644 0 0 55.9644 0 125C0 194.036 55.9644 250 125 250C194.036 250 250 194.036 250 125Z" fill="white"/>
</mask>
<g mask="url(#mask0_898_5492)">
<path d="M250 0H0V250H250V0Z" fill="#4B3132"/>
<path d="M30.16 12.155C-24.1897 74.6772 -17.5646 169.421 44.9576 223.77C107.48 278.12 202.223 271.495 256.573 208.973C310.923 146.451 304.298 51.7072 241.775 -2.64257C179.253 -56.9923 84.5097 -50.3672 30.16 12.155Z" fill="#D2D09F"/>
<path d="M69.8105 132.305C83.8185 139.006 97.7053 138.763 111.471 131.578" stroke="black" stroke-width="2.22222" stroke-linecap="round"/>
<path d="M65.6124 90.7049C65.5455 86.8702 63.1598 83.8023 60.2837 83.8525C57.4077 83.9027 55.1304 87.052 55.1974 90.8867C55.2643 94.7215 57.6501 97.7894 60.5261 97.7392C63.4022 97.689 65.6794 94.5397 65.6124 90.7049Z" fill="black"/>
<path d="M121.159 89.7352C121.092 85.9005 118.707 82.8325 115.831 82.8827C112.955 82.9329 110.677 86.0823 110.744 89.917C110.811 93.7517 113.197 96.8197 116.073 96.7695C118.949 96.7193 121.226 93.57 121.159 89.7352Z" fill="black"/>
</g>
</svg>
