<svg width="252" height="252" viewBox="0 0 252 252" fill="none" xmlns="http://www.w3.org/2000/svg">
<mask id="mask0_902_5356" style="mask-type:alpha" maskUnits="userSpaceOnUse" x="0" y="0" width="252" height="252">
<path d="M252 126C252 56.4121 195.588 0 126 0C56.4121 0 0 56.4121 0 126C0 195.588 56.4121 252 126 252C195.588 252 252 195.588 252 126Z" fill="white"/>
</mask>
<g mask="url(#mask0_902_5356)">
<path d="M252 0H0V252H252V0Z" fill="#91BE95"/>
<path d="M217 263.119C277.265 228.325 297.913 151.265 263.119 91.0001C228.325 30.7352 151.265 10.0869 90.9999 44.8809C30.7351 79.6748 10.0868 156.735 44.8807 217C79.6747 277.265 156.735 297.913 217 263.119Z" fill="#FF8482"/>
<path d="M63 133C63 139.962 66.6875 146.639 73.2513 151.562C79.815 156.484 88.7174 159.25 98 159.25C107.283 159.25 116.185 156.484 122.749 151.562C129.312 146.639 133 139.962 133 133" fill="black"/>
<path d="M80.5 105C80.5 101.134 78.1495 98 75.25 98C72.3505 98 70 101.134 70 105C70 108.866 72.3505 112 75.25 112C78.1495 112 80.5 108.866 80.5 105Z" fill="black"/>
<path d="M122.5 105C122.5 101.134 120.15 98 117.25 98C114.351 98 112 101.134 112 105C112 108.866 114.351 112 117.25 112C120.15 112 122.5 108.866 122.5 105Z" fill="black"/>
</g>
</svg>
