<svg width="250" height="250" viewBox="0 0 250 250" fill="none" xmlns="http://www.w3.org/2000/svg">
<mask id="mask0_898_5552" style="mask-type:alpha" maskUnits="userSpaceOnUse" x="0" y="0" width="250" height="250">
<path d="M250 125C250 55.9644 194.036 0 125 0C55.9644 0 0 55.9644 0 125C0 194.036 55.9644 250 125 250C194.036 250 250 194.036 250 125Z" fill="white"/>
</mask>
<g mask="url(#mask0_898_5552)">
<path d="M250 0H0V250H250V0Z" fill="#FFE6DB"/>
<path d="M282.445 -7.35747L83.9359 17.0164C56.5275 20.3817 37.0367 45.3288 40.4021 72.7372L64.7759 271.246C68.1413 298.655 93.0883 318.146 120.497 314.78L319.006 290.406C346.414 287.041 365.905 262.094 362.54 234.686L338.166 36.1764C334.801 8.76796 309.854 -10.7228 282.445 -7.35747Z" fill="#CBC8B5"/>
<path d="M129.59 139.951C143.823 146.159 157.693 145.432 171.199 137.77" stroke="black" stroke-width="2.22222" stroke-linecap="round"/>
<path d="M110.072 99.2496C109.872 95.4196 107.38 92.4367 104.508 92.5873C101.635 92.7378 99.4694 95.9647 99.6701 99.7948C99.8708 103.625 102.362 106.608 105.235 106.457C108.107 106.307 110.273 103.08 110.072 99.2496Z" fill="black"/>
<path d="M193.291 94.8883C193.091 91.0582 190.599 88.0754 187.727 88.226C184.854 88.3765 182.688 91.6034 182.889 95.4335C183.09 99.2635 185.581 102.246 188.453 102.096C191.326 101.945 193.492 98.7184 193.291 94.8883Z" fill="black"/>
</g>
</svg>
