<svg width="250" height="250" viewBox="0 0 250 250" fill="none" xmlns="http://www.w3.org/2000/svg">
<mask id="mask0_897_5874" style="mask-type:alpha" maskUnits="userSpaceOnUse" x="0" y="0" width="250" height="250">
<path d="M250 125C250 55.9644 194.036 0 125 0C55.9644 0 0 55.9644 0 125C0 194.036 55.9644 250 125 250C194.036 250 250 194.036 250 125Z" fill="white"/>
</mask>
<g mask="url(#mask0_897_5874)">
<path d="M250 0H0V250H250V0Z" fill="#3B234A"/>
<path d="M46.1057 37.3803L39.1258 237.258C38.1621 264.856 59.753 288.009 87.3504 288.973L287.229 295.953C314.826 296.917 337.979 275.326 338.943 247.728L345.923 47.8502C346.887 20.2527 325.296 -2.90066 297.698 -3.86438L97.8203 -10.8443C70.2228 -11.808 47.0695 9.78288 46.1057 37.3803Z" fill="#BAAFC4"/>
<path d="M91.0254 147.033C91.2664 153.935 95.1536 160.427 101.832 165.081C108.51 169.734 117.432 172.168 126.635 171.847C135.839 171.525 144.569 168.475 150.906 163.367C157.244 158.259 160.669 151.512 160.428 144.609" fill="black"/>
<path d="M93.0414 105.27C92.9075 101.437 90.4686 98.4112 87.5938 98.5116C84.7191 98.612 82.4972 101.801 82.631 105.634C82.7649 109.467 85.2038 112.492 88.0786 112.392C90.9533 112.292 93.1752 109.103 93.0414 105.27Z" fill="black"/>
<path d="M162.444 102.847C162.31 99.0137 159.871 95.9879 156.996 96.0883C154.121 96.1886 151.9 99.3773 152.033 103.21C152.167 107.043 154.606 110.069 157.481 109.969C160.356 109.868 162.578 106.68 162.444 102.847Z" fill="black"/>
</g>
</svg>
