<svg width="250" height="250" viewBox="0 0 250 250" fill="none" xmlns="http://www.w3.org/2000/svg">
<mask id="mask0_898_5572" style="mask-type:alpha" maskUnits="userSpaceOnUse" x="0" y="0" width="250" height="250">
<path d="M250 125C250 55.9644 194.036 0 125 0C55.9644 0 0 55.9644 0 125C0 194.036 55.9644 250 125 250C194.036 250 250 194.036 250 125Z" fill="white"/>
</mask>
<g mask="url(#mask0_898_5572)">
<path d="M250 0H0V250H250V0Z" fill="#F7EFD8"/>
<path d="M348.667 156.547L228.304 -3.18004C211.685 -25.2338 180.335 -29.6397 158.281 -13.0211L-1.44597 107.342C-23.4997 123.961 -27.9057 155.311 -11.287 177.364L109.076 337.092C125.695 359.145 157.045 363.551 179.099 346.933L338.826 226.57C360.879 209.951 365.285 178.601 348.667 156.547Z" fill="#556270"/>
<path d="M127.41 116.937C140.917 124.598 154.786 125.325 169.02 119.117" stroke="white" stroke-width="2.22222" stroke-linecap="round"/>
<path d="M112.254 74.4186C112.455 70.5885 110.289 67.3616 107.416 67.2111C104.543 67.0605 102.052 70.0433 101.851 73.8734C101.651 77.7035 103.817 80.9304 106.689 81.0809C109.562 81.2315 112.053 78.2486 112.254 74.4186Z" fill="white"/>
<path d="M195.473 78.7799C195.673 74.9498 193.507 71.7229 190.635 71.5724C187.762 71.4218 185.271 74.4047 185.07 78.2347C184.869 82.0648 187.035 85.2917 189.908 85.4422C192.78 85.5928 195.272 82.61 195.473 78.7799Z" fill="white"/>
</g>
</svg>
