<svg width="250" height="250" viewBox="0 0 250 250" fill="none" xmlns="http://www.w3.org/2000/svg">
<mask id="mask0_898_5522" style="mask-type:alpha" maskUnits="userSpaceOnUse" x="0" y="0" width="250" height="250">
<path d="M250 125C250 55.9644 194.036 0 125 0C55.9644 0 0 55.9644 0 125C0 194.036 55.9644 250 125 250C194.036 250 250 194.036 250 125Z" fill="white"/>
</mask>
<g mask="url(#mask0_898_5522)">
<path d="M250 0H0V250H250V0Z" fill="#D4CDC5"/>
<path d="M332.03 136.471L185.614 26.1379C165.398 10.9041 136.66 14.9429 121.427 35.1588L11.0938 181.575C-4.13996 201.791 -0.101146 230.529 20.1148 245.763L166.531 356.095C186.747 371.329 215.485 367.29 230.719 347.074L341.051 200.658C356.285 180.442 352.246 151.704 332.03 136.471Z" fill="#F4F4F2"/>
<path d="M116.535 167.322C117.377 174.177 121.815 180.306 128.873 184.36C135.932 188.414 145.032 190.061 154.172 188.938C163.313 187.816 171.744 184.016 177.612 178.376C183.48 172.735 186.304 165.714 185.462 158.859" fill="black"/>
<path d="M115.75 132.436C115.282 128.629 112.589 125.827 109.734 126.178C106.879 126.528 104.943 129.898 105.411 133.705C105.878 137.512 108.572 140.314 111.427 139.963C114.282 139.613 116.217 136.242 115.75 132.436Z" fill="black"/>
<path d="M184.678 123.972C184.21 120.166 181.517 117.364 178.662 117.714C175.807 118.065 173.871 121.435 174.339 125.242C174.806 129.049 177.499 131.85 180.354 131.5C183.209 131.149 185.145 127.779 184.678 123.972Z" fill="black"/>
</g>
</svg>
