<svg width="250" height="250" viewBox="0 0 250 250" fill="none" xmlns="http://www.w3.org/2000/svg">
<mask id="mask0_897_5904" style="mask-type:alpha" maskUnits="userSpaceOnUse" x="0" y="0" width="250" height="250">
<path d="M250 125C250 55.9644 194.036 0 125 0C55.9644 0 0 55.9644 0 125C0 194.036 55.9644 250 125 250C194.036 250 250 194.036 250 125Z" fill="white"/>
</mask>
<g mask="url(#mask0_897_5904)">
<path d="M250 0H0V250H250V0Z" fill="#DCEDC2"/>
<path d="M62.6738 190.353L221.183 241.856C243.069 248.967 266.575 236.99 273.686 215.104L325.189 56.5947C332.3 34.7091 320.323 11.2027 298.437 4.0916L139.928 -47.4112C118.042 -54.5223 94.536 -42.5452 87.425 -20.6596L35.9221 137.85C28.8111 159.735 40.7882 183.242 62.6738 190.353Z" fill="#FAE078"/>
<path d="M133.113 134.776C147.833 139.72 161.587 137.787 174.374 128.977" stroke="black" stroke-width="2.22222" stroke-linecap="round"/>
<path d="M112.055 109.685C111.521 105.887 108.78 103.133 105.931 103.533C103.083 103.933 101.206 107.337 101.74 111.135C102.274 114.933 105.016 117.687 107.864 117.287C110.713 116.886 112.589 113.483 112.055 109.685Z" fill="black"/>
<path d="M194.577 98.0873C194.043 94.2893 191.301 91.535 188.453 91.9353C185.604 92.3356 183.728 95.739 184.261 99.537C184.795 103.335 187.537 106.089 190.386 105.689C193.234 105.289 195.11 101.885 194.577 98.0873Z" fill="black"/>
</g>
</svg>
