<svg width="250" height="250" viewBox="0 0 250 250" fill="none" xmlns="http://www.w3.org/2000/svg">
<mask id="mask0_898_5462" style="mask-type:alpha" maskUnits="userSpaceOnUse" x="0" y="0" width="250" height="250">
<path d="M250 125C250 55.9644 194.036 0 125 0C55.9644 0 0 55.9644 0 125C0 194.036 55.9644 250 125 250C194.036 250 250 194.036 250 125Z" fill="white"/>
</mask>
<g mask="url(#mask0_898_5462)">
<path d="M250 0H0V250H250V0Z" fill="#E9D7A9"/>
<path d="M110.71 228.995C179.651 225.382 232.61 166.566 228.997 97.6246C225.384 28.6836 166.567 -24.2752 97.6264 -20.6621C28.6854 -17.0491 -24.2733 41.7676 -20.6603 110.709C-17.0473 179.65 41.7694 232.608 110.71 228.995Z" fill="#D5A57F"/>
<path d="M56.5586 127.487C71.1903 132.687 84.9756 130.994 97.9147 122.409" stroke="black" stroke-width="2.22222" stroke-linecap="round"/>
<path d="M42.8338 101.186C42.3664 97.379 39.673 94.5772 36.8179 94.9278C33.9629 95.2783 32.0273 98.6485 32.4948 102.455C32.9622 106.262 35.6555 109.064 38.5106 108.713C41.3656 108.363 43.3012 104.992 42.8338 101.186Z" fill="black"/>
<path d="M111.762 92.7223C111.294 88.9156 108.601 86.1138 105.746 86.4644C102.891 86.8149 100.955 90.1851 101.422 93.9918C101.89 97.7985 104.583 100.6 107.438 100.25C110.293 99.8992 112.229 96.529 111.762 92.7223Z" fill="black"/>
</g>
</svg>
