<svg width="250" height="250" viewBox="0 0 250 250" fill="none" xmlns="http://www.w3.org/2000/svg">
<mask id="mask0_897_5844" style="mask-type:alpha" maskUnits="userSpaceOnUse" x="0" y="0" width="250" height="250">
<path d="M250 125C250 55.9644 194.036 0 125 0C55.9644 0 0 55.9644 0 125C0 194.036 55.9644 250 125 250C194.036 250 250 194.036 250 125Z" fill="white"/>
</mask>
<g mask="url(#mask0_897_5844)">
<path d="M250 0H0V250H250V0Z" fill="#C5CFC6"/>
<path d="M319.438 126.386C292.467 48.0565 207.104 6.42234 128.775 33.3933C50.4457 60.3642 8.81154 145.727 35.7825 224.056C62.7534 302.386 148.116 344.02 226.446 317.049C304.775 290.078 346.409 204.715 319.438 126.386Z" fill="#D88A8A"/>
<path d="M55.9238 153.38C56.0444 160.286 59.8176 166.845 66.4136 171.614C73.0095 176.384 81.8877 178.973 91.0952 178.812C100.303 178.651 109.085 175.754 115.511 170.757C121.936 165.761 125.478 159.074 125.358 152.168" fill="black"/>
<path d="M65.6124 111.538C65.5455 107.704 63.1598 104.636 60.2837 104.686C57.4077 104.736 55.1304 107.886 55.1974 111.72C55.2643 115.555 57.6501 118.623 60.5261 118.573C63.4022 118.523 65.6794 115.373 65.6124 111.538Z" fill="black"/>
<path d="M121.159 110.569C121.092 106.734 118.707 103.666 115.831 103.716C112.955 103.766 110.677 106.916 110.744 110.751C110.811 114.585 113.197 117.653 116.073 117.603C118.949 117.553 121.226 114.403 121.159 110.569Z" fill="black"/>
</g>
</svg>
