<svg width="250" height="250" viewBox="0 0 250 250" fill="none" xmlns="http://www.w3.org/2000/svg">
<mask id="mask0_897_5854" style="mask-type:alpha" maskUnits="userSpaceOnUse" x="0" y="0" width="250" height="250">
<path d="M250 125C250 55.9644 194.036 0 125 0C55.9644 0 0 55.9644 0 125C0 194.036 55.9644 250 125 250C194.036 250 250 194.036 250 125Z" fill="white"/>
</mask>
<g mask="url(#mask0_897_5854)">
<path d="M250 0H0V250H250V0Z" fill="#C5CFC6"/>
<path d="M246.555 282.316L306.283 126.719C314.53 105.236 303.799 81.135 282.316 72.8883L126.719 13.1603C105.235 4.91361 81.1344 15.6441 72.8877 37.1275L13.1597 192.724C4.913 214.208 15.6435 238.309 37.1269 246.555L192.724 306.283C214.207 314.53 238.308 303.8 246.555 282.316Z" fill="#D88A8A"/>
<path d="M139.016 153.382C139.136 160.288 142.909 166.847 149.505 171.616C156.101 176.386 164.98 178.975 174.187 178.814C183.395 178.653 192.177 175.756 198.603 170.759C205.028 165.763 208.57 159.076 208.449 152.17" fill="black"/>
<path d="M148.946 125.427C148.879 121.592 146.494 118.524 143.618 118.575C140.742 118.625 138.464 121.774 138.531 125.609C138.598 129.444 140.984 132.512 143.86 132.461C146.736 132.411 149.013 129.262 148.946 125.427Z" fill="black"/>
<path d="M204.493 124.457C204.426 120.623 202.041 117.555 199.165 117.605C196.289 117.655 194.011 120.804 194.078 124.639C194.145 128.474 196.531 131.542 199.407 131.492C202.283 131.441 204.56 128.292 204.493 124.457Z" fill="black"/>
</g>
</svg>
