<svg width="252" height="252" viewBox="0 0 252 252" fill="none" xmlns="http://www.w3.org/2000/svg">
<mask id="mask0_902_5336" style="mask-type:alpha" maskUnits="userSpaceOnUse" x="0" y="0" width="252" height="252">
<path d="M252 126C252 56.4121 195.588 0 126 0C56.4121 0 0 56.4121 0 126C0 195.588 56.4121 252 126 252C195.588 252 252 195.588 252 126Z" fill="white"/>
</mask>
<g mask="url(#mask0_902_5336)">
<path d="M252 0H0V252H252V0Z" fill="#FFF4CE"/>
<path d="M287.264 294.573L309.786 111.151C312.895 85.8252 294.886 62.7741 269.56 59.6646L86.1379 37.1431C60.8125 34.0335 37.7614 52.043 34.6519 77.3684L12.1304 260.791C9.02086 286.116 27.0303 309.167 52.3557 312.277L235.778 334.798C261.104 337.908 284.155 319.898 287.264 294.573Z" fill="#FFA492"/>
<path d="M117.467 173.366C119.151 179.028 124.261 183.762 131.671 186.524C139.082 189.287 148.186 189.853 156.981 188.098C165.777 186.343 173.543 182.41 178.571 177.165C183.599 171.92 185.477 165.793 183.792 160.131" fill="black"/>
<path d="M116.007 133.041C115.167 129.455 112.452 127.038 109.943 127.642C107.434 128.246 106.082 131.643 106.922 135.23C107.762 138.816 110.477 141.233 112.986 140.629C115.495 140.024 116.847 136.627 116.007 133.041Z" fill="black"/>
<path d="M185.485 124.51C184.645 120.924 181.93 118.507 179.421 119.111C176.913 119.716 175.56 123.113 176.4 126.699C177.241 130.285 179.956 132.702 182.464 132.098C184.973 131.493 186.326 128.096 185.485 124.51Z" fill="black"/>
</g>
</svg>
