<svg width="252" height="252" viewBox="0 0 252 252" fill="none" xmlns="http://www.w3.org/2000/svg">
<mask id="mask0_902_5326" style="mask-type:alpha" maskUnits="userSpaceOnUse" x="0" y="0" width="252" height="252">
<path d="M252 126C252 56.4121 195.588 0 126 0C56.4121 0 0 56.4121 0 126C0 195.588 56.4121 252 126 252C195.588 252 252 195.588 252 126Z" fill="white"/>
</mask>
<g mask="url(#mask0_902_5326)">
<path d="M252 0H0V252H252V0Z" fill="#6D8B89"/>
<path d="M192.665 7.28503C117.281 -6.00715 45.395 44.328 32.1028 119.712C18.8106 195.095 69.1458 266.982 144.53 280.274C219.913 293.566 291.799 243.231 305.092 167.847C318.384 92.4633 268.049 20.5772 192.665 7.28503Z" fill="#F8F4C4"/>
<path d="M105 126C119 133 133 133 147 126" stroke="black" stroke-width="2.22222" stroke-linecap="round"/>
<path d="M108.5 91C108.5 87.134 106.149 84 103.25 84C100.351 84 98 87.134 98 91C98 94.866 100.351 98 103.25 98C106.149 98 108.5 94.866 108.5 91Z" fill="black"/>
<path d="M150.5 91C150.5 87.134 148.149 84 145.25 84C142.351 84 140 87.134 140 91C140 94.866 142.351 98 145.25 98C148.149 98 150.5 94.866 150.5 91Z" fill="black"/>
</g>
</svg>
