<svg width="252" height="252" viewBox="0 0 252 252" fill="none" xmlns="http://www.w3.org/2000/svg">
<mask id="mask0_902_5346" style="mask-type:alpha" maskUnits="userSpaceOnUse" x="0" y="0" width="252" height="252">
<path d="M252 126C252 56.4121 195.588 0 126 0C56.4121 0 0 56.4121 0 126C0 195.588 56.4121 252 126 252C195.588 252 252 195.588 252 126Z" fill="white"/>
</mask>
<g mask="url(#mask0_902_5346)">
<path d="M252 0H0V252H252V0Z" fill="#FFF4CE"/>
<path d="M13.096 223.159C60.2228 283.479 147.325 294.173 207.645 247.047C267.965 199.92 278.659 112.817 231.533 52.4975C184.406 -7.82208 97.3032 -18.5169 36.9836 28.6099C-23.336 75.7368 -34.0308 162.839 13.096 223.159Z" fill="#FFA492"/>
<path d="M62.7656 104.259C76.1125 110.708 90.024 111.542 104.5 106.759" stroke="black" stroke-width="2.22222" stroke-linecap="round"/>
<path d="M52.9509 69.1283C53.2526 65.3833 51.2832 62.1691 48.5523 61.9493C45.8213 61.7295 43.3629 64.5872 43.0612 68.3322C42.7595 72.0772 44.7288 75.2913 47.4598 75.5111C50.1907 75.731 52.6492 72.8733 52.9509 69.1283Z" fill="black"/>
<path d="M122.91 71.5711C123.212 67.8261 121.242 64.612 118.511 64.3922C115.78 64.1724 113.322 67.0301 113.02 70.7751C112.718 74.52 114.688 77.7342 117.419 77.954C120.15 78.1738 122.608 75.3161 122.91 71.5711Z" fill="black"/>
</g>
</svg>
