<svg width="250" height="250" viewBox="0 0 250 250" fill="none" xmlns="http://www.w3.org/2000/svg">
<mask id="mask0_897_5814" style="mask-type:alpha" maskUnits="userSpaceOnUse" x="0" y="0" width="250" height="250">
<path d="M250 125C250 55.9644 194.036 0 125 0C55.9644 0 0 55.9644 0 125C0 194.036 55.9644 250 125 250C194.036 250 250 194.036 250 125Z" fill="white"/>
</mask>
<g mask="url(#mask0_897_5814)">
<path d="M250 0H0V250H250V0Z" fill="#7A7B7C"/>
<path d="M44.0731 134.978L173.597 239.865C191.481 254.347 217.718 251.589 232.2 233.705L337.087 104.181C351.569 86.2974 348.811 60.0601 330.928 45.5782L201.403 -59.3085C183.52 -73.7903 157.282 -71.0326 142.8 -53.1491L37.9137 76.3753C23.4319 94.2588 26.1895 120.496 44.0731 134.978Z" fill="#E2C99F"/>
<path d="M136.76 114.285C151.564 118.971 165.282 116.798 177.913 107.767" stroke="black" stroke-width="2.22222" stroke-linecap="round"/>
<path d="M108.408 90.6513C107.808 86.8632 105.018 84.1571 102.177 84.6071C99.3363 85.0571 97.5196 88.4927 98.1196 92.2808C98.7195 96.0689 101.509 98.775 104.35 98.325C107.191 97.875 109.008 94.4394 108.408 90.6513Z" fill="black"/>
<path d="M204.433 75.4423C203.833 71.6542 201.044 68.9481 198.203 69.3981C195.362 69.8481 193.545 73.2837 194.145 77.0718C194.745 80.8599 197.534 83.566 200.376 83.116C203.217 82.666 205.033 79.2304 204.433 75.4423Z" fill="black"/>
</g>
</svg>
