<svg width="250" height="250" viewBox="0 0 250 250" fill="none" xmlns="http://www.w3.org/2000/svg">
<mask id="mask0_897_5914" style="mask-type:alpha" maskUnits="userSpaceOnUse" x="0" y="0" width="250" height="250">
<path d="M250 125C250 55.9644 194.036 0 125 0C55.9644 0 0 55.9644 0 125C0 194.036 55.9644 250 125 250C194.036 250 250 194.036 250 125Z" fill="white"/>
</mask>
<g mask="url(#mask0_897_5914)">
<path d="M250 0H0V250H250V0Z" fill="#DCEDC2"/>
<path d="M-25.0454 206.544C-10.6921 274.071 55.685 317.177 123.212 302.824C190.739 288.471 233.845 222.094 219.492 154.567C205.138 87.0395 138.761 43.9337 71.2341 58.287C3.70708 72.6403 -39.3987 139.017 -25.0454 206.544Z" fill="#FAE078"/>
<path d="M91.582 169.309C93.0598 174.87 97.997 179.44 105.308 182.013C112.618 184.587 121.703 184.953 130.564 183.032C139.425 181.111 147.336 177.06 152.557 171.77C157.778 166.479 159.881 160.383 158.403 154.823" fill="black"/>
<path d="M83.6788 136.862C82.8142 133.396 80.0724 131.179 77.5547 131.912C75.0371 132.644 73.697 136.047 74.5616 139.513C75.4262 142.98 78.1681 145.196 80.6857 144.464C83.2034 143.732 84.5435 140.328 83.6788 136.862Z" fill="black"/>
<path d="M166.2 125.264C165.336 121.798 162.594 119.582 160.076 120.314C157.559 121.046 156.218 124.45 157.083 127.916C157.948 131.382 160.69 133.598 163.207 132.866C165.725 132.134 167.065 128.731 166.2 125.264Z" fill="black"/>
</g>
</svg>
