<svg width="252" height="252" viewBox="0 0 252 252" fill="none" xmlns="http://www.w3.org/2000/svg">
<mask id="mask0_902_5366" style="mask-type:alpha" maskUnits="userSpaceOnUse" x="0" y="0" width="252" height="252">
<path d="M252 126C252 56.4121 195.588 0 126 0C56.4121 0 0 56.4121 0 126C0 195.588 56.4121 252 126 252C195.588 252 252 195.588 252 126Z" fill="white"/>
</mask>
<g mask="url(#mask0_902_5366)">
<path d="M252 0H0V252H252V0Z" fill="#FFE4B8"/>
<path d="M55.2842 -74.9955C-22.1407 -43.7138 -59.5472 44.4103 -28.2655 121.835C3.01617 199.26 91.1403 236.667 168.565 205.385C245.99 174.103 283.397 85.9791 252.115 8.55416C220.833 -68.8708 132.709 -106.277 55.2842 -74.9955Z" fill="#B8AA95"/>
<path d="M108.127 136.935C123.564 139.89 137.228 137.536 149.119 129.872" stroke="black" stroke-width="2.22222" stroke-linecap="round"/>
<path d="M84.2596 96.0913C83.3392 92.5229 80.5754 90.1681 78.0865 90.8317C75.5977 91.4953 74.3263 94.9259 75.2468 98.4942C76.1672 102.063 78.931 104.417 81.4199 103.754C83.9087 103.09 85.1801 99.6596 84.2596 96.0913Z" fill="black"/>
<path d="M167.443 84.4008C166.523 80.8325 163.759 78.4777 161.27 79.1413C158.781 79.8048 157.51 83.2355 158.43 86.8038C159.351 90.3722 162.115 92.7269 164.603 92.0634C167.092 91.3998 168.364 87.9692 167.443 84.4008Z" fill="black"/>
</g>
</svg>
