<svg width="250" height="250" viewBox="0 0 250 250" fill="none" xmlns="http://www.w3.org/2000/svg">
<mask id="mask0_898_5482" style="mask-type:alpha" maskUnits="userSpaceOnUse" x="0" y="0" width="250" height="250">
<path d="M250 125C250 55.9644 194.036 0 125 0C55.9644 0 0 55.9644 0 125C0 194.036 55.9644 250 125 250C194.036 250 250 194.036 250 125Z" fill="white"/>
</mask>
<g mask="url(#mask0_898_5482)">
<path d="M250 0H0V250H250V0Z" fill="#4B3132"/>
<path d="M30.16 26.0442C-24.1897 88.5664 -17.5646 183.31 44.9576 237.659C107.48 292.009 202.223 285.384 256.573 222.862C310.923 160.34 304.298 65.5963 241.775 11.2466C179.253 -43.1031 84.5097 -36.478 30.16 26.0442Z" fill="#D2D09F"/>
<path d="M55.9238 167.27C56.0444 174.175 59.8176 180.734 66.4136 185.503C73.0095 190.273 81.8877 192.862 91.0953 192.701C100.303 192.541 109.085 189.643 115.511 184.646C121.936 179.65 125.478 172.963 125.358 166.058" fill="black"/>
<path d="M65.6124 125.428C65.5455 121.593 63.1598 118.525 60.2837 118.575C57.4077 118.625 55.1304 121.775 55.1974 125.609C55.2643 129.444 57.6501 132.512 60.5261 132.462C63.4022 132.412 65.6794 129.262 65.6124 125.428Z" fill="black"/>
<path d="M121.159 124.458C121.092 120.623 118.707 117.555 115.831 117.605C112.955 117.656 110.677 120.805 110.744 124.64C110.811 128.474 113.197 131.542 116.073 131.492C118.949 131.442 121.226 128.293 121.159 124.458Z" fill="black"/>
</g>
</svg>
