<svg width="250" height="250" viewBox="0 0 250 250" fill="none" xmlns="http://www.w3.org/2000/svg">
<mask id="mask0_897_5834" style="mask-type:alpha" maskUnits="userSpaceOnUse" x="0" y="0" width="250" height="250">
<path d="M250 125C250 55.9644 194.036 0 125 0C55.9644 0 0 55.9644 0 125C0 194.036 55.9644 250 125 250C194.036 250 250 194.036 250 125Z" fill="white"/>
</mask>
<g mask="url(#mask0_897_5834)">
<path d="M250 0H0V250H250V0Z" fill="#97C4AD"/>
<path d="M-36.6084 166.109C3.63325 230.51 88.4621 250.094 152.862 209.852C217.262 169.611 236.846 84.7817 196.605 20.3817C156.363 -44.0184 71.5344 -63.6027 7.13434 -23.361C-57.2657 16.8806 -76.85 101.709 -36.6084 166.109Z" fill="#E6FCD9"/>
<path d="M74.6602 115.021C87.4474 123.83 101.201 125.763 115.921 120.819" stroke="black" stroke-width="2.22222" stroke-linecap="round"/>
<path d="M62.3 78.2201C62.8338 74.4222 60.9573 71.0187 58.1088 70.6184C55.2603 70.2181 52.5185 72.9724 51.9847 76.7704C51.4509 80.5684 53.3274 83.9718 56.1759 84.3721C59.0243 84.7725 61.7662 82.0181 62.3 78.2201Z" fill="black"/>
<path d="M144.821 89.8178C145.355 86.0198 143.479 82.6164 140.63 82.2161C137.782 81.8157 135.04 84.5701 134.506 88.3681C133.972 92.1661 135.849 95.5695 138.697 95.9698C141.546 96.3701 144.288 93.6158 144.821 89.8178Z" fill="black"/>
</g>
</svg>
