<svg width="250" height="250" viewBox="0 0 250 250" fill="none" xmlns="http://www.w3.org/2000/svg">
<mask id="mask0_897_5804" style="mask-type:alpha" maskUnits="userSpaceOnUse" x="0" y="0" width="250" height="250">
<path d="M250 125C250 55.9644 194.036 0 125 0C55.9644 0 0 55.9644 0 125C0 194.036 55.9644 250 125 250C194.036 250 250 194.036 250 125Z" fill="white"/>
</mask>
<g mask="url(#mask0_897_5804)">
<path d="M250 0H0V250H250V0Z" fill="#7A7B7C"/>
<path d="M1.30165 66.0929C-56.0104 115.914 -62.0834 202.762 -12.2628 260.074C37.5578 317.386 124.406 323.459 181.718 273.638C239.03 223.818 245.103 136.969 195.282 79.6574C145.462 22.3454 58.6137 16.2724 1.30165 66.0929Z" fill="#E2C99F"/>
<path d="M53.8086 164.536C52.7282 171.358 55.3051 178.472 60.9727 184.315C66.6402 190.157 74.934 194.248 84.0295 195.689C93.125 197.13 102.277 195.801 109.473 191.996C116.668 188.191 121.318 182.221 122.398 175.4" fill="black"/>
<path d="M48.9521 128.612C49.552 124.824 47.7353 121.388 44.8942 120.938C42.0531 120.488 39.2636 123.194 38.6636 126.982C38.0637 130.771 39.8804 134.206 42.7215 134.656C45.5626 135.106 48.3521 132.4 48.9521 128.612Z" fill="black"/>
<path d="M144.977 143.821C145.577 140.033 143.761 136.597 140.92 136.147C138.079 135.697 135.289 138.403 134.689 142.191C134.089 145.98 135.906 149.415 138.747 149.865C141.588 150.315 144.377 147.609 144.977 143.821Z" fill="black"/>
</g>
</svg>
