<svg width="250" height="250" viewBox="0 0 250 250" fill="none" xmlns="http://www.w3.org/2000/svg">
<mask id="mask0_898_5532" style="mask-type:alpha" maskUnits="userSpaceOnUse" x="0" y="0" width="250" height="250">
<path d="M250 125C250 55.9644 194.036 0 125 0C55.9644 0 0 55.9644 0 125C0 194.036 55.9644 250 125 250C194.036 250 250 194.036 250 125Z" fill="white"/>
</mask>
<g mask="url(#mask0_898_5532)">
<path d="M250 0H0V250H250V0Z" fill="#D4CDC5"/>
<path d="M218.352 -2.38597L41.7626 91.5084C17.3807 104.472 8.12471 134.747 21.0888 159.129L114.983 335.719C127.947 360.101 158.222 369.357 182.604 356.393L359.194 262.498C383.576 249.534 392.832 219.259 379.867 194.877L285.973 18.2878C273.009 -6.0941 242.734 -15.3501 218.352 -2.38597Z" fill="#F4F4F2"/>
<path d="M118.805 167.866C119.046 174.768 122.933 181.26 129.611 185.914C136.289 190.567 145.211 193.001 154.415 192.68C163.618 192.358 172.348 189.308 178.686 184.2C185.023 179.092 188.448 172.345 188.207 165.442" fill="black"/>
<path d="M120.821 126.103C120.687 122.27 118.248 119.244 115.373 119.345C112.498 119.445 110.276 122.634 110.41 126.467C110.544 130.3 112.983 133.325 115.858 133.225C118.733 133.125 120.955 129.936 120.821 126.103Z" fill="black"/>
<path d="M190.223 123.68C190.089 119.847 187.65 116.821 184.775 116.921C181.901 117.022 179.679 120.21 179.813 124.043C179.947 127.876 182.385 130.902 185.26 130.802C188.135 130.701 190.357 127.513 190.223 123.68Z" fill="black"/>
</g>
</svg>
