<svg width="250" height="250" viewBox="0 0 250 250" fill="none" xmlns="http://www.w3.org/2000/svg">
<mask id="mask0_897_5884" style="mask-type:alpha" maskUnits="userSpaceOnUse" x="0" y="0" width="250" height="250">
<path d="M250 125C250 55.9644 194.036 0 125 0C55.9644 0 0 55.9644 0 125C0 194.036 55.9644 250 125 250C194.036 250 250 194.036 250 125Z" fill="white"/>
</mask>
<g mask="url(#mask0_897_5884)">
<path d="M250 0H0V250H250V0Z" fill="#FEBEA3"/>
<path d="M233.519 320.104C291.067 260.512 289.409 165.552 229.817 108.004C170.225 50.457 75.2646 52.1146 17.7172 111.707C-39.8301 171.299 -38.1726 266.259 21.4195 323.806C81.0115 381.354 175.972 379.696 233.519 320.104Z" fill="#F6F5DA"/>
<path d="M64.0391 175.982C64.5208 182.872 68.6322 189.225 75.4687 193.642C82.3052 198.06 91.3068 200.181 100.493 199.539C109.68 198.896 118.299 195.543 124.454 190.217C130.609 184.891 133.796 178.028 133.314 171.138" fill="black"/>
<path d="M50.7409 135.144C50.4734 131.318 47.9304 128.379 45.0609 128.58C42.1914 128.78 40.0821 132.044 40.3497 135.87C40.6172 139.696 43.1602 142.635 46.0297 142.435C48.8992 142.234 51.0085 138.97 50.7409 135.144Z" fill="black"/>
<path d="M147.727 128.362C147.46 124.536 144.917 121.597 142.047 121.798C139.178 121.998 137.068 125.263 137.336 129.089C137.604 132.915 140.147 135.854 143.016 135.653C145.886 135.452 147.995 132.188 147.727 128.362Z" fill="black"/>
</g>
</svg>
