<svg width="2243" height="1021" viewBox="0 0 2243 1021" fill="none" xmlns="http://www.w3.org/2000/svg">
<rect y="225.854" width="602.932" height="801.314" transform="rotate(-7.11398 0 225.854)" fill="#C8E0F8"/>
<rect x="52.5391" y="291.685" width="485.547" height="507.232" transform="rotate(-7.11398 52.5391 291.685)" fill="white"/>
<rect x="214.641" y="10" width="661.037" height="888.05" fill="url(#paint0_linear_714_4639)" stroke="white" stroke-width="20"/>
<rect x="267.568" y="103.354" width="557.802" height="574.796" fill="white"/>
<line x1="413.634" y1="362.648" x2="469.679" y2="312.259" stroke="#A5CCF3" stroke-width="30" stroke-linecap="round"/>
<path d="M465.009 445.713C515.287 529.21 583.355 523.418 633.555 451.266" stroke="#A5CCF3" stroke-width="30" stroke-linecap="round"/>
<line x1="520.016" y1="370.376" x2="470.624" y2="312.598" stroke="#A5CCF3" stroke-width="30" stroke-linecap="round"/>
<circle cx="640.502" cy="348.683" r="46.9442" transform="rotate(-18.5421 640.502 348.683)" stroke="#A5CCF3" stroke-width="30"/>
<path d="M1191.39 410.443H1225.69V269.043H1277.49C1278.89 261.693 1275.74 243.843 1269.44 239.293C1257.19 250.143 1240.74 255.743 1225.69 258.193V144.793H1191.39V410.443ZM998.194 357.943C1018.14 350.243 1062.24 321.543 1085.34 280.943C1092.69 292.143 1102.49 301.943 1110.19 309.293C1132.24 330.643 1154.64 344.993 1170.04 349.893L1172.49 342.193C1159.54 336.243 1142.04 321.193 1125.94 295.993C1114.04 276.743 1104.24 260.293 1099.69 236.843C1099.69 234.393 1100.04 231.943 1100.04 229.493V161.593H1065.04V233.693C1063.29 287.593 1026.19 334.143 995.044 349.893L998.194 357.943ZM1491.1 335.893H1525.4V137.443H1491.1V335.893ZM1301.05 162.293H1363.7V197.993C1358.45 249.793 1320.65 289.693 1295.45 304.043L1300 312.093C1319.6 304.393 1362.65 268.693 1382.25 238.943C1390.65 249.793 1405.7 264.493 1415.5 273.243C1427.4 284.443 1449.8 301.243 1460.65 305.443L1464.15 297.743C1454.7 292.843 1439.65 279.193 1427.05 261.693C1418.65 250.143 1401.5 223.893 1396.6 203.593C1396.95 200.793 1397.3 197.993 1397.3 195.193V162.293H1457.15V149.343H1301.05V162.293ZM1349 429.343H1538.7L1534.5 416.393H1382.95V333.793H1349V429.343ZM1699.2 149.343C1639.35 149.343 1604.7 181.193 1604.7 226.693V231.243C1604.7 275.693 1638.3 309.293 1699.2 309.293C1760.1 309.293 1794.05 275.693 1794.05 231.243V226.693C1794.05 181.193 1760.1 149.343 1699.2 149.343ZM1699.2 299.143C1662.45 299.143 1639 269.743 1639 231.593V226.343C1639 187.143 1662.45 159.493 1699.2 159.493C1735.95 159.493 1759.75 187.143 1759.75 226.343V231.593C1759.75 269.743 1735.95 299.143 1699.2 299.143ZM1569 383.493H1831.85L1826.25 369.493L1816.8 370.893H1569V383.493ZM1885.68 312.793H1961.98V370.893H1848.93V383.493H2111.78L2106.18 369.493L2096.73 370.893H1996.28V312.443C2031.63 310.343 2073.63 298.093 2092.53 281.993L2090.08 277.793C2069.43 290.743 2025.33 298.793 1984.38 298.793H1919.63V238.243H2065.93V157.043H1883.93V169.643H2031.98V226.343H1885.68V312.793ZM1158.27 606.093H1198.52V664.543H1158.27V678.893H1198.52V766.393H1232.82V557.443H1198.52V591.743H1158.27V606.093ZM1073.57 560.593C1024.22 560.593 994.468 593.143 994.468 636.543V637.943C994.468 681.343 1023.17 714.243 1073.57 714.243C1123.97 714.243 1152.67 681.343 1152.67 637.943V636.543C1152.67 593.143 1123.97 560.593 1073.57 560.593ZM1073.57 704.093C1042.77 704.093 1029.47 673.293 1029.47 638.293V636.193C1029.47 601.193 1042.77 570.743 1073.57 570.743C1104.37 570.743 1117.67 601.193 1117.67 636.193V638.293C1117.67 673.293 1104.37 704.093 1073.57 704.093ZM1051.17 849.693H1241.92L1237.72 836.743H1085.12V756.593H1051.17V849.693ZM1435.58 608.543H1482.13V644.943H1428.23V659.293H1482.13V698.843H1516.43V557.443H1482.13V594.193H1435.58V608.543ZM1290.33 581.243H1389.03V584.743C1380.98 632.693 1337.93 679.943 1283.33 702.693L1286.13 710.743C1338.63 692.893 1416.33 638.643 1426.13 585.793V568.293H1290.33V581.243ZM1337.58 849.693H1530.08L1525.88 836.743H1371.53V790.543H1515.73V721.943H1337.58V734.193H1481.78V777.943H1337.58V849.693ZM1553.99 622.193H1736.69V609.243H1664.59V561.293H1630.29V609.243H1553.99V622.193ZM1755.59 830.443H1789.89V695.343H1841.69C1843.09 687.993 1839.94 670.143 1833.64 665.593C1821.39 676.443 1804.94 682.043 1789.89 684.493V564.793H1755.59V830.443ZM1647.09 644.593C1598.79 644.593 1571.14 673.643 1571.14 713.893V715.643C1571.14 755.893 1598.79 785.643 1647.09 785.643C1695.39 785.643 1723.04 755.893 1723.04 715.643V713.893C1723.04 673.643 1695.39 644.593 1647.09 644.593ZM1647.09 775.493C1625.74 775.493 1605.44 758.343 1605.44 715.993V713.543C1605.44 670.143 1625.74 654.743 1647.09 654.743C1668.44 654.743 1688.74 671.193 1688.74 713.543V715.993C1688.74 758.343 1668.44 775.493 1647.09 775.493ZM2043.66 830.443H2077.96V689.043H2129.76C2131.16 681.693 2128.01 663.843 2121.71 659.293C2109.46 670.143 2093.01 675.743 2077.96 678.193V564.793H2043.66V830.443ZM1903.31 773.393C1939.71 773.743 1992.21 756.593 2019.51 733.493L2016.36 728.243C1983.11 747.843 1934.81 756.943 1910.31 756.943H1897.36V599.793H1990.46V586.843H1863.41V773.393H1903.31Z" fill="#A4CCF3"/>
<defs>
<linearGradient id="paint0_linear_714_4639" x1="1093.03" y1="350.373" x2="202.237" y2="889.153" gradientUnits="userSpaceOnUse">
<stop stop-color="#C8E0F8"/>
<stop offset="0.494792" stop-color="#C8E0F8"/>
<stop offset="0.494892" stop-color="#A5CCF3"/>
<stop offset="1" stop-color="#A5CCF3"/>
</linearGradient>
</defs>
</svg>
