<svg width="24" height="24" viewBox="0 0 24 24" fill="none" xmlns="http://www.w3.org/2000/svg">
<path d="M16.7735 8.28772L8.28826 16.773C7.99834 17.0629 7.51751 17.0629 7.2276 16.773C6.93768 16.4831 6.93768 16.0023 7.2276 15.7123L15.7129 7.22706C16.0028 6.93715 16.4836 6.93715 16.7735 7.22706C17.0635 7.51698 17.0635 7.99781 16.7735 8.28772Z" fill="#292D32"/>
<path d="M16.7735 16.7729C16.4836 17.0628 16.0028 17.0628 15.7129 16.7729L7.2276 8.28765C6.93768 7.99774 6.93768 7.51691 7.2276 7.22699C7.51751 6.93708 7.99834 6.93708 8.28826 7.22699L16.7735 15.7123C17.0635 16.0022 17.0635 16.483 16.7735 16.7729Z" fill="#292D32"/>
</svg>
