<svg width="40" height="40" viewBox="0 0 40 40" fill="none" xmlns="http://www.w3.org/2000/svg">
<path d="M6.92498 29.4004C6.16248 29.4004 5.44998 29.1379 4.93748 28.6504C4.28748 28.0379 3.97498 27.1129 4.08748 26.1129L4.54998 22.0629C4.63748 21.3004 5.09998 20.2879 5.63748 19.7379L15.9 8.87543C18.4625 6.16293 21.1375 6.08793 23.85 8.65043C26.5625 11.2129 26.6375 13.8879 24.075 16.6004L13.8125 27.4629C13.2875 28.0254 12.3125 28.5504 11.55 28.6754L7.52498 29.3629C7.31248 29.3754 7.12498 29.4004 6.92498 29.4004ZM19.9125 8.63793C18.95 8.63793 18.1125 9.23793 17.2625 10.1379L6.99998 21.0129C6.74998 21.2754 6.46248 21.9004 6.41248 22.2629L5.94998 26.3129C5.89998 26.7254 5.99998 27.0629 6.22498 27.2754C6.44998 27.4879 6.78748 27.5629 7.19998 27.5004L11.225 26.8129C11.5875 26.7504 12.1875 26.4254 12.4375 26.1629L22.7 15.3004C24.25 13.6504 24.8125 12.1254 22.55 10.0004C21.55 9.03793 20.6875 8.63793 19.9125 8.63793Z" fill="#292D32"/>
<path d="M21.6751 18.6871C21.6501 18.6871 21.6126 18.6871 21.5876 18.6871C17.6876 18.2996 14.5501 15.3371 13.9501 11.4621C13.8751 10.9496 14.2251 10.4746 14.7376 10.3871C15.2501 10.3121 15.7251 10.6621 15.8126 11.1746C16.2876 14.1996 18.7376 16.5246 21.7876 16.8246C22.3001 16.8746 22.6751 17.3371 22.6251 17.8496C22.5626 18.3246 22.1501 18.6871 21.6751 18.6871Z" fill="#292D32"/>
<path d="M26.25 33.4375H3.75C3.2375 33.4375 2.8125 33.0125 2.8125 32.5C2.8125 31.9875 3.2375 31.5625 3.75 31.5625H26.25C26.7625 31.5625 27.1875 31.9875 27.1875 32.5C27.1875 33.0125 26.7625 33.4375 26.25 33.4375Z" fill="#292D32"/>
</svg>
