<svg width="55" height="55" viewBox="0 0 55 55" fill="none" xmlns="http://www.w3.org/2000/svg">
<path d="M34.3747 52.1351H20.6247C8.18093 52.1351 2.86426 46.8184 2.86426 34.3747V20.6247C2.86426 8.18093 8.18093 2.86426 20.6247 2.86426H34.3747C46.8184 2.86426 52.1351 8.18093 52.1351 20.6247V34.3747C52.1351 46.8184 46.8184 52.1351 34.3747 52.1351ZM20.6247 6.30176C10.0601 6.30176 6.30176 10.0601 6.30176 20.6247V34.3747C6.30176 44.9393 10.0601 48.6976 20.6247 48.6976H34.3747C44.9393 48.6976 48.6976 44.9393 48.6976 34.3747V20.6247C48.6976 10.0601 44.9393 6.30176 34.3747 6.30176H20.6247Z" fill="#8C8888"/>
<path d="M20.6253 24.6354C17.142 24.6354 14.3232 21.8167 14.3232 18.3333C14.3232 14.85 17.142 12.0312 20.6253 12.0312C24.1087 12.0312 26.9274 14.85 26.9274 18.3333C26.9274 21.8167 24.1087 24.6354 20.6253 24.6354ZM20.6253 15.4687C19.0441 15.4687 17.7607 16.7521 17.7607 18.3333C17.7607 19.9146 19.0441 21.1979 20.6253 21.1979C22.2066 21.1979 23.4899 19.9146 23.4899 18.3333C23.4899 16.7521 22.2066 15.4687 20.6253 15.4687Z" fill="#8C8888"/>
<path d="M6.11892 45.1457C5.56892 45.1457 5.01892 44.8707 4.69809 44.3895C4.171 43.6103 4.37725 42.5332 5.17934 42.0061L16.4773 34.4207C18.9523 32.7478 22.3668 32.954 24.6127 34.8561L25.3689 35.5207C26.5148 36.5061 28.4627 36.5061 29.5856 35.5207L39.1189 27.3395C41.5481 25.254 45.3752 25.254 47.8273 27.3395L51.5627 30.5478C52.2731 31.1665 52.3648 32.2436 51.746 32.977C51.1273 33.6874 50.0502 33.779 49.3168 33.1603L45.5814 29.952C44.4356 28.9665 42.4877 28.9665 41.3418 29.952L31.8085 38.1332C29.3793 40.2186 25.5523 40.2186 23.1002 38.1332L22.3439 37.4686C21.2898 36.5749 19.5481 36.4832 18.3793 37.2853L7.08142 44.8707C6.7835 45.054 6.43975 45.1457 6.11892 45.1457Z" fill="#8C8888"/>
</svg>
