<svg width="50" height="50" viewBox="0 0 50 50" fill="none" xmlns="http://www.w3.org/2000/svg">
<path d="M25 29.5212C20.5625 29.5212 16.9375 25.917 16.9375 21.4587C16.9375 17.0003 20.5625 13.417 25 13.417C29.4375 13.417 33.0625 17.0212 33.0625 21.4795C33.0625 25.9378 29.4375 29.5212 25 29.5212ZM25 16.542C22.2917 16.542 20.0625 18.7503 20.0625 21.4795C20.0625 24.2087 22.2708 26.417 25 26.417C27.7292 26.417 29.9375 24.2087 29.9375 21.4795C29.9375 18.7503 27.7083 16.542 25 16.542Z" fill="#292D32"/>
<path d="M25 47.417C21.9167 47.417 18.8125 46.2503 16.3958 43.9378C10.25 38.0212 3.45833 28.5837 6.02083 17.3545C8.33333 7.16699 17.2292 2.60449 25 2.60449C25 2.60449 25 2.60449 25.0208 2.60449C32.7917 2.60449 41.6875 7.16699 44 17.3753C46.5417 28.6045 39.75 38.0212 33.6042 43.9378C31.1875 46.2503 28.0833 47.417 25 47.417ZM25 5.72949C18.9375 5.72949 11.1458 8.95866 9.08333 18.042C6.83333 27.8545 13 36.3128 18.5833 41.667C22.1875 45.1462 27.8333 45.1462 31.4375 41.667C37 36.3128 43.1667 27.8545 40.9583 18.042C38.875 8.95866 31.0625 5.72949 25 5.72949Z" fill="#292D32"/>
</svg>
