<svg width="24" height="24" viewBox="0 0 24 24" fill="none" xmlns="http://www.w3.org/2000/svg">
<path d="M15.0006 22.75H9.00063C7.68063 22.75 6.58063 22.62 5.65063 22.34C5.31063 22.24 5.09063 21.91 5.11063 21.56C5.36063 18.57 8.39063 16.22 12.0006 16.22C15.6106 16.22 18.6306 18.56 18.8906 21.56C18.9206 21.92 18.7006 22.24 18.3506 22.34C17.4206 22.62 16.3206 22.75 15.0006 22.75ZM6.72063 21.06C7.38063 21.19 8.13063 21.25 9.00063 21.25H15.0006C15.8706 21.25 16.6206 21.19 17.2806 21.06C16.7506 19.14 14.5606 17.72 12.0006 17.72C9.44063 17.72 7.25063 19.14 6.72063 21.06Z" />
<path d="M11.9999 14.92C9.60992 14.92 7.66992 12.97 7.66992 10.58C7.66992 8.19002 9.60992 6.25 11.9999 6.25C14.3899 6.25 16.3299 8.19002 16.3299 10.58C16.3299 12.97 14.3899 14.92 11.9999 14.92ZM11.9999 7.75C10.4399 7.75 9.16992 9.02002 9.16992 10.58C9.16992 12.15 10.4399 13.42 11.9999 13.42C13.5599 13.42 14.8299 12.15 14.8299 10.58C14.8299 9.02002 13.5599 7.75 11.9999 7.75Z" />
<path d="M15 22.73H9C3.57 22.73 1.25 20.41 1.25 14.98V8.97998C1.25 3.54998 3.57 1.22998 9 1.22998H15C20.43 1.22998 22.75 3.54998 22.75 8.97998V14.98C22.75 20.41 20.43 22.73 15 22.73ZM9 2.72998C4.39 2.72998 2.75 4.36998 2.75 8.97998V14.98C2.75 19.59 4.39 21.23 9 21.23H15C19.61 21.23 21.25 19.59 21.25 14.98V8.97998C21.25 4.36998 19.61 2.72998 15 2.72998H9Z" />
</svg>
